<svg xmlns="http://www.w3.org/2000/svg" viewBox="0 0 1024 484">
<path d="M563.197,467.454L563.197,467.454z"/>
<path d="M561.773,467.454L561.773,467.454z"/>
<path d="M563.965,467.561"/>
<path fill="#f41e2c" d="M161.208,479.938c19.607,1.972,84.013,3.612,292.345-10.953l0,0c0,0,83.464-1.646,104.058-1.315h2.631
	c48.961,0.985,127.715,4.381,230.018,14.788c33.66,3.177,67.609,1.44,100.771-5.148c27.592-3.209,53.77-13.932,75.688-30.998l0,0
	c11.775-9.324,21.568-20.904,28.809-34.063l0,0c65.719-102.417-7.119-216.439-7.119-216.439l0,0
	C932.982,98.213,739.217,0.616,509.747,0.616c-229.472,0-420.061,97.049-474.938,194.094l0,0c0,0-68.459,103.838-13.363,206.473l0,0
	c22.837,45.015,68.095,74.294,118.515,76.675L161.208,479.938z"/>
<text transform="matrix(1 0 0 1 946.8926 244.877)" fill="#fff" font-family="Arial-BoldMT,Arial" font-size="22" font-weight="700">TM</text>
<path fill="#fff" d="M124.407,233.487L84.208,414.11h41.186c4.259-0.003,7.948-2.964,8.873-7.119l35.051-163.427
	c0.968-4.432-1.841-8.812-6.274-9.778c-0.602-0.132-1.215-0.195-1.833-0.189L124.407,233.487z"/>
<path fill="#fff" d="M146.313,317.5l9.966-10.954l52.577-73.06h43.813c4.157,0.376,7.225,4.05,6.85,8.205
	c-0.147,1.633-0.821,3.175-1.921,4.393l-58.162,71.744l27.383,85.872c1.513,4.277-0.728,8.971-5.006,10.484
	c-0.925,0.327-1.899,0.483-2.881,0.47h-43.814L146.313,317.5z"/>
<path fill="#fff" d="M292.542,233.487h30.778c4.9-0.016,8.885,3.943,8.901,8.845c0.002,0.71-0.081,1.419-0.249,2.109
	l-35.379,163.203c-0.877,4.082-4.478,7.001-8.653,7.012h-29.903c-4.9,0.018-8.884-3.942-8.901-8.844
	c-0.002-0.71,0.081-1.419,0.248-2.111l34.503-163.202C284.764,236.417,288.367,233.498,292.542,233.487z"/>
<path fill="#fff" d="M399.665,233.487h30.779c4.901-0.016,8.885,3.943,8.901,8.845c0.002,0.71-0.081,1.419-0.248,2.109
	l-35.379,163.097c-0.877,4.079-4.479,7-8.653,7.01H365.38c-4.9,0.02-8.884-3.942-8.9-8.844c-0.002-0.71,0.08-1.419,0.247-2.11
	l34.505-163.202C392.13,236.429,395.604,233.588,399.665,233.487z"/>
<path fill="#fff" d="M355.414,233.487h123.663c3.449-0.036,6.274,2.729,6.312,6.176c0.008,0.771-0.125,1.537-0.396,2.259
	l-10.078,26.069c-0.956,2.563-3.398,4.263-6.133,4.274H347.418c-3.629,0.004-6.576-2.936-6.582-6.563
	c-0.001-0.711,0.113-1.418,0.339-2.091l8.325-25.412C350.187,235.476,352.606,233.552,355.414,233.487z"/>
<path fill="#fff" d="M642.061,240.388L607.67,404.033c-1.271,4.607,1.43,9.372,6.037,10.646c0.816,0.226,1.658,0.331,2.506,0.311
	h35.928l16.102-86.971c0.166-0.453,0.672-0.686,1.125-0.519c0.238,0.09,0.43,0.277,0.518,0.519l25.082,87.078h43.814
	c3.014,0.016,5.617-2.091,6.24-5.037l37.242-168.241c0.787-3.42-1.348-6.83-4.766-7.617c-0.486-0.108-0.979-0.164-1.477-0.158
	h-37.24l-19.279,87.627c-0.168,0.451-0.672,0.685-1.127,0.518c-0.238-0.089-0.43-0.278-0.516-0.518l-27.166-87.63h-40.525
	C646.363,234.141,643.072,236.718,642.061,240.388z"/>
<path fill="#fff" d="M886.32,227.793c-96.609,2.081-107.123,105.372-107.123,105.372c-11.504,92.337,67.145,84.671,67.145,84.671
	c93.105,0.656,100.441-101.866,100.441-101.866C959.49,225.384,886.32,227.793,886.32,227.793z M891.141,340.831
	c-13.689,48.634-44.799,40.639-44.799,40.639c-27.166-7.777-12.158-58.713-12.158-58.713c15.006-62.436,46.004-56.52,46.004-56.52
	C915.348,268.758,891.141,340.831,891.141,340.831z"/>
<path fill="#fff" d="M577.766,242.798c-0.4-5.264-4.797-9.325-10.078-9.312h-36.254c-3.674-0.027-7.074,1.942-8.871,5.149
	L431.648,402.06c-2.237,4.019-0.797,9.086,3.219,11.324c1.227,0.685,2.607,1.048,4.011,1.056h43.265l13.253-32.86
	c0.448-1.121,1.531-1.856,2.739-1.861h38.116c1.635,0,2.959,1.324,2.959,2.959l0,0v31.106h43.814
	c4.354,0.017,7.896-3.504,7.914-7.858c0-0.229-0.01-0.458-0.025-0.687L577.766,242.798z M537.129,342.255
	c-0.061,1.047-0.926,1.861-1.973,1.861h-18.84c-1.09-0.033-1.939-0.945-1.906-2.032c0.008-0.243,0.061-0.479,0.152-0.704
	l20.813-43.813c0-0.728,0.59-1.313,1.314-1.313c0.727,0,1.313,0.588,1.313,1.313L537.129,342.255z"/>
<path fill="#ffc916" d="M632.971,78.719c0,0,1.645,32.858-61.994,58.71c0,0-46.113,20.811-49.398,55.424
	c0,0,18.07,1.646,60.57-39.433c-11.318,22.47-30.268,40.175-53.449,49.947c0,0,107.998,12.051,106.902-124.538"/>
<path fill="#ffc916" d="M518.729,203.477c-14.5-17.685-16.756-42.418-5.697-62.436c14.674-17.442,22.465-39.647,21.906-62.435
	c0,0-13.143-41.187,2.738-60.352c0,0-68.018,24.645-75.688,97.047c-0.6,25.849,9.741,50.75,28.479,68.564
	c0,0-15.882-70.978,12.05-98.58C502.517,85.289,474.914,171.382,518.729,203.477z"/>
<path fill="#ffc916" d="M400.978,95.148c10.409,50.74,48.56,91.267,98.581,104.714c-16.367-8.192-29.658-21.447-37.899-37.789
	c-5.124-13.917-15.854-25.044-29.573-30.67C432.084,131.402,415.329,128.664,400.978,95.148z"/>
<path fill="#ffc916" d="M390.573,78.719c0.711,7.636,1.957,15.21,3.725,22.674c1.67,7.445,3.867,14.767,6.572,21.903
	c5.243,13.9,12.837,26.794,22.454,38.117c4.768,5.661,10.088,10.836,15.882,15.445c2.849,2.409,5.917,4.49,8.873,6.682l4.71,2.958
	l2.3,1.531l2.41,1.425c13.393,7.334,27.483,13.315,42.06,17.855c-15.775-0.761-31.27-4.477-45.675-10.955l-2.738-1.203l-2.629-1.313
	l-5.148-2.521c-3.472-2.055-6.834-4.285-10.077-6.684c-3.286-2.3-6.243-5.039-9.311-7.668c-3.067-2.629-5.805-5.695-8.325-8.764
	c-10.343-12.298-17.824-26.737-21.907-42.278c-2.097-7.624-3.418-15.441-3.942-23.332C389.056,94.635,389.312,86.613,390.573,78.719
	z"/>
<path fill="#ffc916" d="M385.645,136.552c3.232,14.991,11.085,28.592,22.454,38.883c-13.582-2.453-27.396-3.371-41.184-2.738
	c2.477-6.615,8.816-10.988,15.882-10.952C382.794,161.745,379.511,143.013,385.645,136.552z"/>
<path fill="#ffc916" d="M517.852,170.286c0,0,7.666-30.448,54.766-45.018c-4.127-2.29-8.754-3.531-13.473-3.613
	c-0.32-4.806,0.236-9.633,1.645-14.237c-3.74,2.978-8.016,5.209-12.598,6.569c0.529-6.69-1.205-13.365-4.928-18.949
	c0.996,10.434-1.848,20.869-7.998,29.354C524.832,137.509,518.744,153.551,517.852,170.286z"/>
<circle fill="#ffc916" cx="558.816" cy="95.804" r="5.476"/>
<circle fill="#ffc916" cx="576.889" cy="92.958" r="5.476"/>
<circle fill="#ffc916" cx="574.371" cy="110.152" r="5.477"/>
<circle fill="#ffc916" cx="635.709" cy="167.11" r="10.844"/>
<path fill="#ffc916" d="M413.248,98.434c14.281-0.769,26.785,9.501,28.807,23.659C442.055,122.093,423.104,127.131,413.248,98.434z"
	/>
<path fill="#ffc916" d="M582.367,199.97c0,0,51.371-32.858,139.105-6.241c0,0,68.02,26.618,92.887-2.08
	c0,0-15.883,38.774-115.996,11.829C698.361,203.477,656.74,188.579,582.367,199.97z"/>
<path fill="#ffc916" d="M445.122,199.97c0,0-51.372-32.858-139.108-6.241c0,0-68.02,26.618-92.884-2.08
	c0,0,15.882,38.774,115.995,11.829C329.125,203.477,370.639,188.579,445.122,199.97z"/>
</svg>